<?xml version="1.0" encoding="utf-8"?>
<!-- Generator: Adobe Illustrator 19.0.0, SVG Export Plug-In . SVG Version: 6.00 Build 0)  -->
<svg version="1.1" id="Layer_1" xmlns="http://www.w3.org/2000/svg" xmlns:xlink="http://www.w3.org/1999/xlink" x="0px" y="0px"
	 viewBox="542 -207 1696 1206" style="enable-background:new 542 -207 1696 1206;" xml:space="preserve">
<style type="text/css">
	.st0{fill:#B9EFD4;}
	.st1{fill:#05C46B;}
	.st2{fill:#FFFFFF;}
	.st3{fill:#C9C9C9;}
	.st4{fill:#E2D2CA;}
	.st5{fill:#7A799C;}
	.st6{fill:#CCBDB7;}
	.st7{fill:#101011;}
	.st8{fill:#12B2DD;}
	.st9{fill:#EAD8CF;}
	.st10{fill:#DB9C5C;}
	.st11{fill:#434874;}
	.st12{fill:#2A2D47;}
	.st13{fill:#EFA986;}
	.st14{fill:#3B4048;}
	.st15{fill:#333757;}
	.st16{fill:#918783;}
	.st17{fill:#5F5955;}
	.st18{fill:#BFB3AD;}
	.st19{fill:#47465A;}
	.st20{fill:#2F2F3A;}
	.st21{fill:#F6F7FB;}
	.st22{fill:#0FBCF9;}
	.st23{fill:#DFE1E8;}
	.st24{fill:#37582B;}
	.st25{fill:#47623D;}
	.st26{fill:#935F2E;}
	.st27{fill:#4A763A;}
	.st28{fill:#548742;}
	.st29{fill:#877670;}
	.st30{fill:#876556;}
	.st31{fill:#725447;}
	.st32{fill:#9E643A;}
	.st33{fill:#97A33B;}
	.st34{fill:#835330;}
	.st35{fill:#C77C47;}
</style>
<g id="XMLID_114_">
	<g id="XMLID_270_">
		<path id="XMLID_112_" class="st0" d="M1468.2,301.3L867,304.4c-25,0.1-45.4-20.1-45.5-45.1l-2-395.7c-0.1-25,20.1-45.4,45.1-45.5
			l601.1-3.1c25-0.1,45.4,20.1,45.5,45.1l2,395.7C1513.4,280.8,1493.3,301.2,1468.2,301.3z"/>
		
			<rect id="XMLID_111_" x="1082" y="-190.5" transform="matrix(-1 5.153182e-003 -5.153182e-003 -1 2331.8171 -348.907)" class="st1" width="168.7" height="38.1"/>
		<g id="XMLID_286_">
			<g id="XMLID_287_">
				<path id="XMLID_110_" class="st2" d="M997.8-87.5c0,0,0.2,110.5-11.8,154.9l-26,16.5l-91.9,0.5c17.2-46.6,17-171.2,17-171.2
					L997.8-87.5z"/>
				<polygon id="XMLID_109_" class="st3" points="960,83.8 959.9,67.1 986,67 				"/>
			</g>
		</g>
		<g id="XMLID_282_">
			<g id="XMLID_283_">
				<path id="XMLID_108_" class="st2" d="M1109-114.7c0,0,0.1,76.5-8.2,107.1l-18,11.4l-63.6,0.3c12-32.2,11.8-118.4,11.8-118.4
					L1109-114.7z"/>
				<polygon id="XMLID_107_" class="st3" points="1082.8,3.8 1082.8,-7.7 1100.8,-7.8 				"/>
			</g>
		</g>
		<g id="XMLID_278_">
			<g id="XMLID_279_">
				<path id="XMLID_106_" class="st2" d="M1105,51.7c0,0,0.1,56.4-6.9,79l-15.1,8.4l-53.4,0.3c10-23.8,9.9-87.3,9.9-87.3L1105,51.7z
					"/>
				<polygon id="XMLID_105_" class="st3" points="1083,139.1 1082.9,130.6 1098.1,130.5 				"/>
			</g>
		</g>
		<g id="XMLID_271_">
			<g id="XMLID_276_">
				<rect id="XMLID_104_" x="872.4" y="182.7" class="st2" width="160.8" height="8.4"/>
			</g>
			<g id="XMLID_274_">
				<rect id="XMLID_103_" x="872.4" y="240.8" class="st2" width="185.5" height="8.4"/>
			</g>
			<g id="XMLID_272_">
				<rect id="XMLID_102_" x="872.4" y="211.8" class="st2" width="114.2" height="8.4"/>
			</g>
		</g>
	</g>
	<g id="XMLID_136_">
		<g id="XMLID_268_">
			<rect id="XMLID_101_" x="1413.5" y="429.4" class="st4" width="185.1" height="11"/>
		</g>
		<g id="XMLID_266_">
			<rect id="XMLID_100_" x="1557.6" y="469" class="st5" width="16.2" height="499.8"/>
		</g>
		<g id="XMLID_264_">
			<rect id="XMLID_99_" x="1313.8" y="426.3" class="st6" width="128.7" height="15.7"/>
		</g>
		<g id="XMLID_262_">
			<rect id="XMLID_98_" x="1353.8" y="292.4" class="st7" width="48.7" height="148"/>
		</g>
		<g id="XMLID_260_">
			<g id="XMLID_188_">
				<rect id="XMLID_191_" x="952" y="440.6" class="st5" width="713.1" height="28.4"/>
			</g>
		</g>
		<g id="XMLID_258_">
			<path id="XMLID_96_" class="st8" d="M1801.9,268.5c0,0,7.8,109.4-13.6,122.5c-13.4,8.2-66.8,35.9-65.2,41
				c1.6,5.2,30.1,46.1,30.1,46.1s102.5-67.5,105.8-88.8c3.2-20.8-5-160.1-19.1-166.6c-10.6-4.8-16.1-0.8-29.4,9
				C1791.9,245.7,1801.9,268.5,1801.9,268.5z"/>
		</g>
		<g id="XMLID_254_">
			<g id="XMLID_255_">
				<g id="XMLID_256_">
					<path id="XMLID_95_" class="st9" d="M1615.1,299.8l-9-3.3c0,0,11.3-26.5,16.2-25.8c5.7,0.7,12.7,2.6,12.7,2.6L1615.1,299.8z"/>
				</g>
			</g>
		</g>
		<g id="XMLID_250_">
			<g id="XMLID_251_">
				<g id="XMLID_252_">
					<path id="XMLID_94_" class="st10" d="M1613,304.3c1.2-0.9,19.2-35.5,19.2-35.5l38.6,5.2l-20.8,41L1613,304.3z"/>
				</g>
			</g>
		</g>
		<g id="XMLID_246_">
			<g id="XMLID_247_">
				<g id="XMLID_248_">
					<path id="XMLID_93_" class="st11" d="M1675.8,900.6c0,0,3.2,22.1,3.6,25.5c0.4,3.3,35.5-2,35.5-2l2.8-26.3
						C1717.7,897.7,1680.2,897.4,1675.8,900.6z"/>
				</g>
			</g>
		</g>
		<g id="XMLID_242_">
			<g id="XMLID_243_">
				<g id="XMLID_244_">
					<path id="XMLID_92_" class="st12" d="M1679,923.2c0,0-11.1,13.3-21.9,19.1c-10.7,5.8-27.6,8.1-34,14.1
						c-4.6,4.3-16.7,23,27.9,22.7c44.6-0.4,66.1,2.6,70.9-4.5c4.8-7.2-6.9-52.9-6.9-52.9S1704.5,925.5,1679,923.2z"/>
				</g>
			</g>
		</g>
		<g id="XMLID_238_">
			<g id="XMLID_239_">
				<g id="XMLID_240_">
					<path id="XMLID_91_" class="st11" d="M1451.1,900.8c0,0,3.2,22.1,3.6,25.5c0.4,3.3,35.5-2,35.5-2l2.8-26.3
						C1493,897.9,1455.5,897.7,1451.1,900.8z"/>
				</g>
			</g>
		</g>
		<g id="XMLID_234_">
			<g id="XMLID_235_">
				<g id="XMLID_236_">
					<path id="XMLID_90_" class="st12" d="M1454.3,923.4c0,0-11.1,13.3-21.9,19.1c-10.7,5.8-50.3,10.6-56.6,16.6
						c-4.6,4.3-12.2,21.8,50.6,20.2c44.6-1.2,66.1,2.6,70.9-4.5c4.8-7.2-6.9-52.9-6.9-52.9S1480.5,926,1454.3,923.4z"/>
				</g>
			</g>
		</g>
		<g id="XMLID_230_">
			<g id="XMLID_231_">
				<g id="XMLID_232_">
					<path id="XMLID_89_" class="st12" d="M1788.9,518.3c0,0-127.5,21.6-156.3,26.1s-184.9,43.4-204.4,55.2
						c-15.5,9.4,8.2,235.7,13.7,322.1h61.5l4.5-259c73.8,1.8,126.5-17.3,180.2-9.1c53.7,8.2,98.5,19.8,132.7-26
						C1820.7,627.6,1821.9,528.3,1788.9,518.3z"/>
				</g>
			</g>
		</g>
		<g id="XMLID_226_">
			<g id="XMLID_227_">
				<g id="XMLID_228_">
					<path id="XMLID_88_" class="st12" d="M1663.2,921.9l59.9-3.7l5.8-255.5c31.8,0.8,42.7-1.2,68.4-4.3l48.4-112.5
						c-42.4,8.5-178.3,42.7-196.4,53.7C1633.8,609,1657.7,835.6,1663.2,921.9z"/>
				</g>
			</g>
		</g>
		<g id="XMLID_222_">
			<g id="XMLID_223_">
				<g id="XMLID_224_">
					<path id="XMLID_87_" class="st13" d="M1730.2,40.4c0,0-46.7-12.9-64.6,23.4c-17.8,36.3-9.7,105.1,13.8,111.5
						c23.6,6.5,57.4-1,67.2-23.6c9.8-22.6,17.6-54.7,15.2-75.4C1759.5,55.5,1742.6,45.4,1730.2,40.4z"/>
				</g>
			</g>
		</g>
		<g id="XMLID_218_">
			<g id="XMLID_219_">
				<g id="XMLID_220_">
					<path id="XMLID_86_" class="st13" d="M1691.7,168.1c0,0,0.5,27.6-2.5,33.5s65.1,4.4,65.1,4.4s-10.7-33.1-4.6-61.4
						C1755.6,116.7,1691.7,168.1,1691.7,168.1z"/>
				</g>
			</g>
		</g>
		<g id="XMLID_214_">
			<g id="XMLID_215_">
				<g id="XMLID_216_">
					<path id="XMLID_85_" class="st14" d="M1753.2,134.2c0,0-3.6,7.4-21.3,6.2c-17.6-1.2-40.9-22.5-48.4-24.4s-7.9-6.2-7.9-6.2l-4,7
						l-7.7,1.2c0,0,5.2-21.3-6.1-28.8c-11.4-7.5,5.1-68,62.6-53.4c0,0,43.9,8,44.5,32.5C1765.5,92.9,1761.7,121.2,1753.2,134.2z"/>
				</g>
			</g>
		</g>
		<g id="XMLID_210_">
			<g id="XMLID_211_">
				<g id="XMLID_212_">
					<path id="XMLID_84_" class="st4" d="M1685.5,200.9c0,0,0.2-11.2,5.3-12.3c5.1-1.1,53.5-7.7,59.8-5.3l2.7,14.8
						C1753.3,198.1,1741.3,205.5,1685.5,200.9z"/>
				</g>
			</g>
		</g>
		<g id="XMLID_206_">
			<g id="XMLID_207_">
				<g id="XMLID_208_">
					<path id="XMLID_83_" class="st13" d="M1671.5,104.8c1.3-9.2,11.8-19.8,17.8-5.4c6,14.3-4,35.2-10.8,34.1
						C1671.8,132.4,1669.8,117.3,1671.5,104.8z"/>
				</g>
			</g>
		</g>
		<g id="XMLID_202_">
			<g id="XMLID_203_">
				<g id="XMLID_204_">
					<path id="XMLID_82_" class="st15" d="M1482.6,333.6C1482.6,333.6,1482.7,333.6,1482.6,333.6
						C1482.3,333.8,1482.3,333.8,1482.6,333.6z"/>
				</g>
			</g>
		</g>
		<g id="XMLID_198_">
			<g id="XMLID_199_">
				<g id="XMLID_200_">
					<path id="XMLID_81_" class="st14" d="M1743.8,47c0,0,57-2.7,9.9,86.3L1743.8,47z"/>
				</g>
			</g>
		</g>
		<g id="XMLID_195_">
			<g id="XMLID_196_">
				<polygon id="XMLID_80_" class="st16" points="1870.8,952.2 1866.6,964.2 1687.5,908.7 1696,884.5 				"/>
			</g>
		</g>
		<g id="XMLID_192_">
			<g id="XMLID_193_">
				<rect id="XMLID_79_" x="1681.3" y="705.4" class="st16" width="20.4" height="194.7"/>
			</g>
		</g>
		<g id="XMLID_189_">
			<g id="XMLID_190_">
				<rect id="XMLID_78_" x="1631.5" y="695.1" class="st17" width="120.1" height="11.5"/>
			</g>
		</g>
		<g id="XMLID_186_">
			<g id="XMLID_187_">
				<polygon id="XMLID_77_" class="st16" points="1510.6,952.2 1514.8,964.2 1693.9,908.7 1686.1,883 				"/>
			</g>
		</g>
		<g id="XMLID_183_">
			<g id="XMLID_184_">
				<polygon id="XMLID_76_" class="st16" points="1636.8,962.9 1636.8,976.7 1693.9,908.7 1686.1,883 				"/>
			</g>
		</g>
		<g id="XMLID_180_">
			<g id="XMLID_181_">
				<circle id="XMLID_75_" class="st18" cx="1510.6" cy="968.8" r="16.7"/>
			</g>
		</g>
		<g id="XMLID_177_">
			<g id="XMLID_178_">
				<circle id="XMLID_74_" class="st18" cx="1652.1" cy="968.8" r="16.7"/>
			</g>
		</g>
		<g id="XMLID_174_">
			<g id="XMLID_175_">
				<circle id="XMLID_73_" class="st18" cx="1870.8" cy="968.8" r="16.7"/>
			</g>
		</g>
		<g id="XMLID_172_">
			<g id="XMLID_154_">
				<path id="XMLID_156_" class="st19" d="M1569.3,695.1h242.9c11.5,0,20.8-9.3,20.8-20.8v-1.9c0-11.5-9.3-20.8-20.8-20.8h-242.9
					c-11.5,0-20.8,9.3-20.8,20.8v1.9C1548.5,685.8,1557.8,695.1,1569.3,695.1z"/>
			</g>
		</g>
		<g id="XMLID_170_">
			<rect id="XMLID_72_" x="1043.3" y="469" class="st5" width="16.2" height="499.8"/>
		</g>
		<g id="XMLID_168_">
			<g id="XMLID_169_">
				<path id="XMLID_182_" class="st20" d="M1195,363.7h366.3c15.1,0,27.3-12.2,27.3-27.3V94.1c0-15.1-12.2-27.3-27.3-27.3H1195
					c-15.1,0-27.3,12.2-27.3,27.3v242.3C1167.7,351.5,1179.9,363.7,1195,363.7z"/>
			</g>
		</g>
		<g id="XMLID_166_">
			<rect id="XMLID_70_" x="1184.2" y="82.8" class="st21" width="387.9" height="234.3"/>
		</g>
		<g id="XMLID_164_">
			<path id="XMLID_69_" class="st19" d="M1291,440.9v-5.3c0,0,7.4-32.9,60-32.9c52.5,0,51.5,38.1,51.5,38.1H1291V440.9z"/>
		</g>
		<g id="XMLID_161_">
			<g id="XMLID_162_">
				<path id="XMLID_68_" class="st13" d="M1403.1,407.7c0,0-11.4-0.9-15.6-3.4s-29.2-19.3-35.1-16.7c-5.9,2.7-45,14.7-43.6,20.4
					s5,5.2,7.7,4.2c2.8-1,31.2-7,33.7-6c0,0-27.9,10.2-28,17.6c-0.1,7.4,5.8,9.2,8.5,12c2.6,2.8,5.8,9.8,13,10.3
					s42.3-11.7,49.5-12.2c7.2-0.6,20.6,0.4,21.5-0.7C1415.6,432,1403.1,407.7,1403.1,407.7z"/>
			</g>
		</g>
		<g id="XMLID_157_">
			<g id="XMLID_171_">
				<g id="XMLID_173_">
					<g id="XMLID_176_">
						<path id="XMLID_179_" class="st22" d="M1610.9,216.4c36.4-6.4,74.7-15.6,74.7-15.6l67.8-2.8c0,0,62.2,13.7,86.7,24.8
							c2.3,1,2.3,55.5,8.7,69.8l-20.3,42.8c0,0-11.7,84.9-14.2,122.6c-1.1,17.3,3.2,167.5,3.2,167.5s-6.1,3-52.3,8.1
							c-46.3,5.1-161.8-1.8-162.5-7.3s22.4-203.4,23.4-213.7c1.6-15.7-4.5-88.4-4.5-88.4c-8.7,11.7-30.9,64.6-54.1,89.7
							c-13.6,14.8-81.1,23.9-93.8,24.3c-27.7,0.9-78.2,6.4-79.6,3.7c-1.2-1.6-4.4-44.8-1.2-45.9c2.8-0.9,96.5-6.3,120.5-19.1
							c8.8-4.7,35.1-61.9,35.1-61.9S1590.8,225.4,1610.9,216.4z"/>
					</g>
				</g>
			</g>
		</g>
		<g id="XMLID_155_">
			<g id="XMLID_144_">
				<path id="XMLID_148_" class="st19" d="M1755.7,621.2h91.2c29,0,52.5-23.5,52.5-52.5V402c0-29-23.5-52.5-52.5-52.5h-91.2
					c-29,0-52.5,23.5-52.5,52.5v166.7C1703.2,597.7,1726.7,621.2,1755.7,621.2z"/>
			</g>
		</g>
		<g id="XMLID_153_">
			<path id="XMLID_65_" class="st19" d="M1738,684.3c28.9,0,52.4-9.7,69.7-28.9c39.2-43.3,32.2-119.4,31.8-122.6
				c-0.6-6-5.9-10.4-11.9-9.8c-6,0.6-10.4,5.9-9.8,11.9c0.1,0.9,6.3,69.9-26.3,105.9c-13.2,14.6-30.7,21.6-53.5,21.6
				c-6,0-10.9,4.9-10.9,10.9C1727.1,679.4,1731.9,684.3,1738,684.3z"/>
		</g>
		<g id="XMLID_149_">
			<g id="XMLID_150_">
				<g id="XMLID_151_">
					<path id="XMLID_64_" class="st23" d="M1434.9,113.9h105.8c2.2,0,3.9-1.7,3.9-3.9v-4.6c0-2.2-1.7-3.9-3.9-3.9h-105.8
						c-2.2,0-3.9,1.7-3.9,3.9v4.6C1431,112.1,1432.7,113.9,1434.9,113.9z"/>
				</g>
			</g>
		</g>
		<g id="XMLID_145_">
			<g id="XMLID_146_">
				<g id="XMLID_147_">
					<path id="XMLID_63_" class="st23" d="M1434.9,140.4h105.8c2.2,0,3.9-1.7,3.9-3.9V132c0-2.2-1.7-3.9-3.9-3.9h-105.8
						c-2.2,0-3.9,1.7-3.9,3.9v4.6C1431,138.7,1432.7,140.4,1434.9,140.4z"/>
				</g>
			</g>
		</g>
		<g id="XMLID_141_">
			<g id="XMLID_142_">
				<g id="XMLID_143_">
					<path id="XMLID_41_" class="st23" d="M1444.1,298.5h87.3c7.3,0,13.1-5.9,13.1-13.1V171.6c0-7.3-5.9-13.1-13.1-13.1h-87.3
						c-7.3,0-13.1,5.9-13.1,13.1v113.7C1431,292.6,1436.8,298.5,1444.1,298.5z"/>
				</g>
			</g>
		</g>
		<g id="XMLID_137_">
			<g id="XMLID_138_">
				<g id="XMLID_139_">
					<path id="XMLID_62_" class="st23" d="M1226.5,298.5h160.7c11.5,0,20.8-9.3,20.8-20.8V122.3c0-11.5-9.3-20.8-20.8-20.8h-160.7
						c-11.5,0-20.8,9.3-20.8,20.8v155.4C1205.7,289.2,1215,298.5,1226.5,298.5z"/>
				</g>
			</g>
		</g>
	</g>
	<g id="XMLID_121_">
		<path id="XMLID_61_" class="st24" d="M1039.5,282.5c25.4,0,45.9-20.6,45.9-45.9c0-6.8-1.5-13.3-4.2-19.2
			c-7.3-15.8-23.2-26.7-41.7-26.7c-25.4,0-45.9,20.6-45.9,45.9c0,8.7,2.4,16.8,6.6,23.8C1008.3,273.7,1022.9,282.5,1039.5,282.5z"/>
		<path id="XMLID_60_" class="st25" d="M1086.2,278.4c17.7,0,32.1-14.4,32.1-32.1c0-1,0-2-0.1-3c-1.5-16.3-15.3-29.1-32-29.1
			c-17.7,0-32.1,14.4-32.1,32.1c0,11.2,5.8,21.1,14.5,26.9C1073.6,276.5,1079.7,278.4,1086.2,278.4z"/>
		<path id="XMLID_59_" class="st26" d="M1038.8,239c0,0-2.6,21.3-3.4,50.3c-0.9,29,22.2,29,22.2,29v106.2h16
			c0,0-0.4-108.3,7.6-117.1c8-8.7,8-50,8-50l-4.5-2.7c0,0,6.8,48.9-24.3,56.1c-31.1,7.2-19.3-69.8-19.3-69.8L1038.8,239z"/>
		<path id="XMLID_58_" class="st27" d="M1028.2,244c26.4-4.9,43.7-16.3,53.1-26.6c-7.3-15.8-23.2-26.7-41.7-26.7
			c-25.4,0-45.9,20.6-45.9,45.9c0,8.7,2.4,16.8,6.6,23.8C1001.5,254.2,1008.4,247.7,1028.2,244z"/>
		<path id="XMLID_57_" class="st28" d="M1095.5,255.1c10.6-3.1,17.9-7.3,22.6-11.8c-1.5-16.3-15.3-29.1-32-29.1
			c-17.7,0-32.1,14.4-32.1,32.1c0,11.2,5.8,21.1,14.5,26.9C1071.8,267,1079.2,259.8,1095.5,255.1z"/>
		<polygon id="XMLID_56_" class="st29" points="1113.6,375.2 1005.6,375.2 1011.2,395.2 1106.9,395.2 		"/>
		<polygon id="XMLID_55_" class="st30" points="1100.1,395.2 1020,395.2 1031.1,440.6 1092.3,440.6 		"/>
		<path id="XMLID_54_" class="st28" d="M1089.1,218.2l2.8,0.9c0,0,4.4-11.8,4.6-13.5C1096.8,204,1089.1,218.2,1089.1,218.2z"/>
		<path id="XMLID_53_" class="st28" d="M1115.3,219l-13.7,4.2c0,0,0.1,1.2,1.9,1.2C1105.2,224.5,1115.3,219,1115.3,219z"/>
		<path id="XMLID_52_" class="st28" d="M1110.5,247.9h-3.5c0,0,0.7,5.2,3.5,8.5C1113.4,259.7,1110.5,247.9,1110.5,247.9z"/>
		<path id="XMLID_51_" class="st27" d="M1026.2,182.1c-1.4,1,5,16.8,5,16.8h3.2C1034.4,198.9,1027.6,181,1026.2,182.1z"/>
		<path id="XMLID_50_" class="st27" d="M1041.1,195c0.6-4.3-2.7-11.5-2.7-11.5v10.8C1038.4,194.3,1040.6,199.2,1041.1,195z"/>
		<path id="XMLID_49_" class="st27" d="M1015.7,257c2-1.6,2.1-15.9,2.1-15.9l-3.1,1.1C1014.7,242.2,1013.8,258.6,1015.7,257z"/>
		<path id="XMLID_48_" class="st31" d="M1073.6,395.2H1020l11.1,45.4h17.6C1038.7,404.1,1073.6,395.2,1073.6,395.2z"/>
	</g>
	<g id="XMLID_115_">
		<path id="XMLID_47_" class="st32" d="M1033.9,440.6c4.4-1.8,11.5-22.6,14.9-33.4c1.2-3.8,2-6.4,2-6.4h-40.2
			c3.5,24.8,11.9,39.7,11.9,39.7h11.4V440.6z"/>
		<path id="XMLID_46_" class="st33" d="M1037.1,388.5c0-1.4,6.5-7.5,9.7-11.4c3.2-4-1.2-11.4-1.2-11.4c-14.4,6-11.9,22.9-11.9,22.9
			S1037.1,389.9,1037.1,388.5z"/>
		<path id="XMLID_45_" class="st33" d="M1028.9,389.1h1.7c0,0,1.2-29.2-9.4-33.2c-10.7-4-10.7-11.9-10.7-11.9s-3.2,10.9,2,16.6
			c5.2,5.7,11.2,12.4,10.2,17.9C1021.7,384,1028.9,389.1,1028.9,389.1z"/>
		<path id="XMLID_44_" class="st34" d="M1048.8,407.2c1.2-3.8,2-6.4,2-6.4h-40.2c3.5,24.8,11.9,39.7,11.9,39.7h2.6
			C1024.6,417.3,1039.9,409.7,1048.8,407.2z"/>
		<polygon id="XMLID_43_" class="st35" points="1050.8,388.5 1010.3,388.5 1008,400.9 1052.4,400.9 		"/>
	</g>
</g>
</svg>
